<?xml version="1.0" standalone="no"?>
<!DOCTYPE svg PUBLIC "-//W3C//DTD SVG 20010904//EN"
 "http://www.w3.org/TR/2001/REC-SVG-20010904/DTD/svg10.dtd">
<svg version="1.0" xmlns="http://www.w3.org/2000/svg"
 width="30" height="30" viewBox="0 0 752.000000 752.000000"
 preserveAspectRatio="xMidYMid meet">

<g transform="translate(0.000000,752.000000) scale(0.100000,-0.100000)"
fill="#d60b40" stroke="none">
<path d="M3641 5604 c-86 -23 -167 -72 -228 -138 -45 -49 -215 -338 -872
-1477 -449 -778 -822 -1433 -829 -1455 -22 -68 -26 -192 -8 -261 44 -175 176
-311 345 -355 61 -16 188 -17 1711 -17 1523 0 1650 1 1711 17 169 44 301 180
345 355 18 69 14 193 -8 261 -7 22 -380 676 -829 1455 -657 1139 -827 1428
-872 1477 -118 128 -301 182 -466 138z m192 -298 c18 -7 44 -26 58 -42 41 -45
1631 -2804 1641 -2847 17 -76 -35 -173 -109 -203 -48 -21 -3278 -21 -3326 0
-74 30 -126 127 -109 203 10 43 1600 2802 1641 2847 49 54 135 72 204 42z"/>
<path d="M3690 4642 c-22 -11 -44 -36 -58 -63 l-22 -44 2 -662 c3 -655 3 -662
24 -690 65 -86 183 -86 248 0 21 28 21 35 24 685 3 727 4 718 -60 763 -42 31
-113 35 -158 11z"/>
<path d="M3685 2929 c-16 -4 -47 -22 -68 -40 -108 -89 -109 -258 -2 -347 171
-141 422 22 360 234 -36 123 -163 191 -290 153z"/>
</g>
</svg>
