<?xml version="1.0" standalone="no"?>
<!DOCTYPE svg PUBLIC "-//W3C//DTD SVG 20010904//EN"
 "http://www.w3.org/TR/2001/REC-SVG-20010904/DTD/svg10.dtd">
<svg version="1.0" xmlns="http://www.w3.org/2000/svg"
 width="752.000000pt" height="752.000000pt" viewBox="0 0 752.000000 752.000000"
 preserveAspectRatio="xMidYMid meet">

<g transform="translate(0.000000,752.000000) scale(0.100000,-0.100000)"
fill="#FEAE00" stroke="none">
<path d="M3705 5986 c-32 -32 -37 -70 -33 -244 3 -143 4 -152 27 -176 18 -19
35 -26 61 -26 26 0 43 7 61 26 23 24 24 33 27 176 2 82 1 166 -3 185 -9 47
-46 83 -85 83 -19 0 -40 -9 -55 -24z"/>
<path d="M3135 5745 c-16 -15 -25 -35 -25 -56 0 -28 18 -50 132 -166 112 -113
137 -133 163 -133 65 0 105 56 81 113 -7 18 -67 85 -133 150 -109 107 -123
117 -157 117 -26 0 -44 -7 -61 -25z"/>
<path d="M4163 5637 c-116 -116 -133 -137 -133 -165 0 -44 38 -82 82 -82 28 0
49 17 165 133 149 149 157 165 104 218 -53 53 -69 45 -218 -104z"/>
<path d="M2553 5276 c-148 -48 -260 -182 -284 -339 -27 -169 71 -351 228 -424
253 -117 536 32 585 307 30 171 -67 352 -231 433 -57 28 -76 32 -160 34 -61 2
-111 -2 -138 -11z"/>
<path d="M4723 5276 c-192 -62 -318 -265 -285 -455 16 -91 53 -164 116 -227
233 -232 625 -115 692 206 38 182 -55 369 -224 452 -58 29 -77 33 -161 35 -61
2 -111 -2 -138 -11z"/>
<path d="M3490 5161 c-46 -24 -78 -72 -85 -129 -25 -208 -58 -349 -99 -430
-34 -67 -112 -134 -214 -185 l-85 -42 -336 -5 -336 -5 -50 -27 c-27 -14 -66
-44 -86 -65 -42 -44 -224 -297 -262 -363 -36 -64 -197 -525 -197 -567 0 -42
19 -79 59 -117 61 -58 181 -42 224 31 9 17 54 133 98 259 74 210 117 303 155
334 12 11 13 4 9 -46 -3 -33 -10 -169 -16 -304 l-10 -245 -226 -767 c-246
-837 -241 -814 -190 -890 80 -118 258 -111 323 13 8 16 95 305 194 642 99 336
184 621 189 632 7 14 9 -10 6 -75 -3 -52 -10 -327 -16 -611 -9 -405 -9 -525 1
-554 16 -47 66 -104 107 -121 99 -42 226 21 252 124 5 20 19 393 30 827 19
724 23 823 56 1180 19 215 37 395 39 401 2 6 22 15 43 19 118 21 320 141 417
245 98 107 165 272 207 512 36 211 23 285 -60 328 -50 25 -96 26 -141 1z"/>
<path d="M3879 5147 c-19 -12 -45 -43 -57 -69 -23 -46 -23 -51 -12 -140 40
-315 118 -525 241 -646 97 -96 272 -197 387 -224 39 -10 54 -18 57 -33 2 -11
21 -193 40 -405 35 -365 37 -426 55 -1175 12 -515 23 -801 30 -820 14 -36 55
-82 92 -101 15 -8 53 -14 84 -14 94 0 158 49 184 140 4 15 1 285 -6 601 -8
316 -13 590 -12 609 2 25 52 -132 167 -525 229 -782 214 -736 260 -778 117
-105 313 -23 314 131 0 32 -69 282 -221 802 l-221 755 -10 250 c-6 138 -13
275 -16 305 l-5 55 25 -30 c42 -49 89 -158 161 -369 40 -119 77 -210 92 -227
50 -60 126 -76 192 -40 43 22 80 84 80 132 0 37 -152 484 -189 557 -26 52
-225 329 -268 373 -19 21 -58 50 -87 65 l-51 29 -336 5 -336 5 -87 44 c-105
53 -178 117 -212 183 -41 81 -74 222 -99 430 -15 120 -142 188 -236 125z"/>
</g>
</svg>
